# This file uses feet as units for non-parametric coordinates.

mtllib BowlingAlleyModel.mtl
g default
v -26.112512 -0.500000 193.451936
v 26.112512 -0.500000 193.451936
v -26.112512 0.500000 193.451936
v 26.112512 0.500000 193.451936
v -26.112512 0.500000 -193.452029
v 26.112512 0.500000 -193.452029
v -26.112512 -0.500000 -193.452029
v 26.112512 -0.500000 -193.452029
vt 0.361793 0.048004
vt 0.608814 0.047708
vt 0.363375 0.053966
vt 0.607246 0.053673
vt 0.368706 0.535818
vt 0.603071 0.535537
vt 0.369302 0.607023
vt 0.602645 0.606743
vt 0.371959 0.969332
vt 0.600856 0.969057
vt 0.879884 0.049671
vt 0.879882 0.048071
vt 0.090728 0.050617
vt 0.090727 0.049017
vn 0.000000 0.000000 1.000000
vn 0.000000 0.000000 1.000000
vn 0.000000 0.000000 1.000000
vn 0.000000 0.000000 1.000000
vn 0.000000 1.000000 0.000000
vn 0.000000 1.000000 0.000000
vn 0.000000 1.000000 0.000000
vn 0.000000 1.000000 0.000000
vn 0.000000 0.000000 -1.000000
vn 0.000000 0.000000 -1.000000
vn 0.000000 0.000000 -1.000000
vn 0.000000 0.000000 -1.000000
vn 0.000000 -1.000000 0.000000
vn 0.000000 -1.000000 0.000000
vn 0.000000 -1.000000 0.000000
vn 0.000000 -1.000000 0.000000
vn 1.000000 0.000000 0.000000
vn 1.000000 0.000000 0.000000
vn 1.000000 0.000000 0.000000
vn 1.000000 0.000000 0.000000
vn -1.000000 0.000000 0.000000
vn -1.000000 0.000000 0.000000
vn -1.000000 0.000000 0.000000
vn -1.000000 0.000000 0.000000
s off
g pCube1
usemtl initialShadingGroup
f 1/1/1 2/2/2 4/4/3 3/3/4
f 3/3/5 4/4/6 6/6/7 5/5/8
f 5/5/9 6/6/10 8/8/11 7/7/12
f 7/7/13 8/8/14 2/10/15 1/9/16
f 2/2/17 8/11/18 6/12/19 4/4/20
f 7/13/21 1/1/22 3/3/23 5/14/24
