# This file uses centimeters as units for non-parametric coordinates.

mtllib BowlingAlleyModel.mtl
g default
v -1.535014 -0.029392 11.371994
v 1.535014 -0.029392 11.371994
v -1.535014 0.029392 11.371994
v 1.535014 0.029392 11.371994
v -1.535014 0.029392 -11.372000
v 1.535014 0.029392 -11.372000
v -1.535014 -0.029392 -11.372000
v 1.535014 -0.029392 -11.372000
vt 0.361793 0.048004
vt 0.608814 0.047708
vt 0.607246 0.053673
vt 0.363375 0.053966
vt 0.603071 0.535537
vt 0.368706 0.535818
vt 0.602645 0.606743
vt 0.369302 0.607023
vt 0.600856 0.969057
vt 0.371959 0.969332
vt 0.879884 0.049671
vt 0.879882 0.048071
vt 0.090728 0.050617
vt 0.090727 0.049017
vn 0.000000 0.000000 1.000000
vn 0.000000 0.000000 1.000000
vn 0.000000 0.000000 1.000000
vn 0.000000 0.000000 1.000000
vn 0.000000 1.000000 0.000000
vn 0.000000 1.000000 0.000000
vn 0.000000 1.000000 0.000000
vn 0.000000 1.000000 0.000000
vn 0.000000 0.000000 -1.000000
vn 0.000000 0.000000 -1.000000
vn 0.000000 0.000000 -1.000000
vn 0.000000 0.000000 -1.000000
vn 0.000000 -1.000000 0.000000
vn 0.000000 -1.000000 0.000000
vn 0.000000 -1.000000 0.000000
vn 0.000000 -1.000000 0.000000
vn 1.000000 0.000000 0.000000
vn 1.000000 0.000000 0.000000
vn 1.000000 0.000000 0.000000
vn 1.000000 0.000000 0.000000
vn -1.000000 0.000000 0.000000
vn -1.000000 0.000000 0.000000
vn -1.000000 0.000000 0.000000
vn -1.000000 0.000000 0.000000
s off
g pCube1
usemtl initialShadingGroup1
f 1/1/1 2/2/2 4/3/3 3/4/4
f 3/4/5 4/3/6 6/5/7 5/6/8
f 5/6/9 6/5/10 8/7/11 7/8/12
f 7/8/13 8/7/14 2/9/15 1/10/16
f 2/2/17 8/11/18 6/12/19 4/3/20
f 7/13/21 1/1/22 3/4/23 5/14/24
