# This file uses centimeters as units for non-parametric coordinates.

mtllib BumpersModel.mtl
g default
v -0.156058 -0.434187 8.320313
v 0.156058 -0.434187 8.320313
v -0.156058 1.723161 8.320313
v 0.156058 1.723161 8.320313
v -0.156058 1.723161 -9.227237
v 0.156058 1.723161 -9.227237
v -0.156058 -0.434187 -9.227237
v 0.156058 -0.434187 -9.227237
vt 0.488145 0.037629
vt 0.511561 0.037723
vt 0.511659 0.094883
vt 0.488067 0.094866
vt 0.512014 0.521381
vt 0.488349 0.521417
vt 0.511651 0.579231
vt 0.488676 0.579189
vt 0.511249 0.976769
vt 0.488316 0.976747
vt 0.910829 0.038150
vt 0.910718 0.096139
vt 0.512782 0.038192
vt 0.911591 0.037629
vt 0.911514 0.094866
vt 0.512877 0.096135
vn 0.000000 0.000000 1.000000
vn 0.000000 0.000000 1.000000
vn 0.000000 0.000000 1.000000
vn 0.000000 0.000000 1.000000
vn 0.000000 1.000000 0.000000
vn 0.000000 1.000000 0.000000
vn 0.000000 1.000000 0.000000
vn 0.000000 1.000000 0.000000
vn 0.000000 0.000000 -1.000000
vn 0.000000 0.000000 -1.000000
vn 0.000000 0.000000 -1.000000
vn 0.000000 0.000000 -1.000000
vn 0.000000 -1.000000 0.000000
vn 0.000000 -1.000000 0.000000
vn 0.000000 -1.000000 0.000000
vn 0.000000 -1.000000 0.000000
vn 1.000000 0.000000 0.000000
vn 1.000000 0.000000 0.000000
vn 1.000000 0.000000 0.000000
vn 1.000000 0.000000 0.000000
vn -1.000000 0.000000 0.000000
vn -1.000000 0.000000 0.000000
vn -1.000000 0.000000 0.000000
vn -1.000000 0.000000 0.000000
s off
g pCube1
usemtl initialShadingGroup1
f 1/1/1 2/2/2 4/3/3 3/4/4
f 3/4/5 4/3/6 6/5/7 5/6/8
f 5/6/9 6/5/10 8/7/11 7/8/12
f 7/8/13 8/7/14 2/9/15 1/10/16
f 2/2/17 8/11/18 6/12/19 4/3/20
f 7/13/21 1/14/22 3/15/23 5/16/24
